<mxfile host="app.diagrams.net" agent="Mozilla/5.0 (Macintosh; Intel Mac OS X 10_15_7) AppleWebKit/537.36 (KHTML, like Gecko) Chrome/131.0.0.0 Safari/537.36" version="26.0.2">
  <diagram name="Page-1" id="olHxBfnrUabksd1oDJkg">
    <mxGraphModel dx="1831" dy="1934" grid="1" gridSize="10" guides="1" tooltips="1" connect="1" arrows="1" fold="1" page="1" pageScale="1" pageWidth="827" pageHeight="1169" math="0" shadow="0">
      <root>
        <mxCell id="0" />
        <mxCell id="1" parent="0" />
        <mxCell id="uEUFvvo23RSSSX1iaue5-9" value="" style="rounded=0;whiteSpace=wrap;html=1;fillColor=none;" parent="1" vertex="1">
          <mxGeometry x="130" y="140" width="510" height="140" as="geometry" />
        </mxCell>
        <mxCell id="1DLb7zQgLXHhxM0IBGhG-11" value="" style="rounded=0;whiteSpace=wrap;html=1;fillColor=none;" vertex="1" parent="1">
          <mxGeometry x="-40" y="-200" width="760" height="1010" as="geometry" />
        </mxCell>
        <mxCell id="1DLb7zQgLXHhxM0IBGhG-13" value="" style="rounded=0;whiteSpace=wrap;html=1;fillColor=none;" vertex="1" parent="1">
          <mxGeometry x="80" y="90" width="610" height="490" as="geometry" />
        </mxCell>
        <mxCell id="uEUFvvo23RSSSX1iaue5-1" value="&quot;nullasdasdasd&quot;" style="text;html=1;align=center;verticalAlign=middle;whiteSpace=wrap;rounded=0;fillColor=none;gradientColor=default;strokeColor=default;" parent="1" vertex="1">
          <mxGeometry x="300" y="240" width="100" height="30" as="geometry" />
        </mxCell>
        <mxCell id="uEUFvvo23RSSSX1iaue5-2" value="&quot;n&quot;" style="text;html=1;align=center;verticalAlign=middle;whiteSpace=wrap;rounded=0;fillColor=none;gradientColor=default;strokeColor=default;" parent="1" vertex="1">
          <mxGeometry x="420" y="240" width="40" height="30" as="geometry" />
        </mxCell>
        <mxCell id="uEUFvvo23RSSSX1iaue5-3" value="" style="endArrow=classic;html=1;rounded=0;entryX=0.25;entryY=0;entryDx=0;entryDy=0;dashed=1;" parent="1" target="uEUFvvo23RSSSX1iaue5-1" edge="1">
          <mxGeometry width="50" height="50" relative="1" as="geometry">
            <mxPoint x="240" y="190" as="sourcePoint" />
            <mxPoint x="240" y="140" as="targetPoint" />
          </mxGeometry>
        </mxCell>
        <mxCell id="uEUFvvo23RSSSX1iaue5-6" value="string that should be parsed" style="text;html=1;align=center;verticalAlign=middle;whiteSpace=wrap;rounded=0;" parent="1" vertex="1">
          <mxGeometry x="190" y="150" width="80" height="30" as="geometry" />
        </mxCell>
        <mxCell id="uEUFvvo23RSSSX1iaue5-7" value="expected character (first character of expected string)" style="text;html=1;align=center;verticalAlign=middle;whiteSpace=wrap;rounded=0;" parent="1" vertex="1">
          <mxGeometry x="490" y="150" width="130" height="30" as="geometry" />
        </mxCell>
        <mxCell id="uEUFvvo23RSSSX1iaue5-8" value="" style="endArrow=classic;html=1;rounded=0;entryX=0.5;entryY=0;entryDx=0;entryDy=0;dashed=1;" parent="1" target="uEUFvvo23RSSSX1iaue5-2" edge="1">
          <mxGeometry width="50" height="50" relative="1" as="geometry">
            <mxPoint x="500" y="180" as="sourcePoint" />
            <mxPoint x="595" y="270" as="targetPoint" />
          </mxGeometry>
        </mxCell>
        <mxCell id="uEUFvvo23RSSSX1iaue5-11" style="edgeStyle=orthogonalEdgeStyle;rounded=0;orthogonalLoop=1;jettySize=auto;html=1;" parent="1" source="uEUFvvo23RSSSX1iaue5-9" edge="1">
          <mxGeometry relative="1" as="geometry">
            <mxPoint x="385" y="330" as="targetPoint" />
          </mxGeometry>
        </mxCell>
        <mxCell id="uEUFvvo23RSSSX1iaue5-10" value="INPUT" style="text;html=1;align=center;verticalAlign=middle;whiteSpace=wrap;rounded=0;fillColor=#ffe6cc;strokeColor=#d79b00;" parent="1" vertex="1">
          <mxGeometry x="520" y="240" width="120" height="40" as="geometry" />
        </mxCell>
        <mxCell id="uEUFvvo23RSSSX1iaue5-13" value="take a first character from string" style="text;html=1;align=center;verticalAlign=middle;whiteSpace=wrap;rounded=0;" parent="1" vertex="1">
          <mxGeometry x="390" y="290" width="190" height="30" as="geometry" />
        </mxCell>
        <mxCell id="uEUFvvo23RSSSX1iaue5-23" style="edgeStyle=orthogonalEdgeStyle;rounded=0;orthogonalLoop=1;jettySize=auto;html=1;" parent="1" source="uEUFvvo23RSSSX1iaue5-15" edge="1">
          <mxGeometry relative="1" as="geometry">
            <mxPoint x="385" y="470" as="targetPoint" />
          </mxGeometry>
        </mxCell>
        <mxCell id="uEUFvvo23RSSSX1iaue5-15" value="" style="rounded=0;whiteSpace=wrap;html=1;fillColor=none;" parent="1" vertex="1">
          <mxGeometry x="282.5" y="330" width="205" height="60" as="geometry" />
        </mxCell>
        <mxCell id="uEUFvvo23RSSSX1iaue5-16" value="&quot;n&quot;" style="text;html=1;align=center;verticalAlign=middle;whiteSpace=wrap;rounded=0;" parent="1" vertex="1">
          <mxGeometry x="310" y="345" width="50" height="30" as="geometry" />
        </mxCell>
        <mxCell id="uEUFvvo23RSSSX1iaue5-17" value="&quot;n&quot;" style="text;html=1;align=center;verticalAlign=middle;whiteSpace=wrap;rounded=0;" parent="1" vertex="1">
          <mxGeometry x="410" y="345" width="50" height="30" as="geometry" />
        </mxCell>
        <mxCell id="uEUFvvo23RSSSX1iaue5-19" value="" style="endArrow=classic;html=1;rounded=0;entryX=0;entryY=0.5;entryDx=0;entryDy=0;dashed=1;" parent="1" target="uEUFvvo23RSSSX1iaue5-16" edge="1">
          <mxGeometry width="50" height="50" relative="1" as="geometry">
            <mxPoint x="170" y="320" as="sourcePoint" />
            <mxPoint x="220" y="325" as="targetPoint" />
          </mxGeometry>
        </mxCell>
        <mxCell id="uEUFvvo23RSSSX1iaue5-20" value="first character from string" style="text;html=1;align=center;verticalAlign=middle;whiteSpace=wrap;rounded=0;" parent="1" vertex="1">
          <mxGeometry x="90" y="330" width="90" height="30" as="geometry" />
        </mxCell>
        <mxCell id="uEUFvvo23RSSSX1iaue5-21" value="" style="endArrow=classic;html=1;rounded=0;entryX=1;entryY=0.5;entryDx=0;entryDy=0;dashed=1;" parent="1" target="uEUFvvo23RSSSX1iaue5-17" edge="1">
          <mxGeometry width="50" height="50" relative="1" as="geometry">
            <mxPoint x="580" y="350" as="sourcePoint" />
            <mxPoint x="720" y="375" as="targetPoint" />
          </mxGeometry>
        </mxCell>
        <mxCell id="uEUFvvo23RSSSX1iaue5-22" value="expected character" style="text;html=1;align=center;verticalAlign=middle;whiteSpace=wrap;rounded=0;" parent="1" vertex="1">
          <mxGeometry x="560" y="360" width="60" height="30" as="geometry" />
        </mxCell>
        <mxCell id="uEUFvvo23RSSSX1iaue5-24" value="compare characters if they are equal" style="text;html=1;align=center;verticalAlign=middle;whiteSpace=wrap;rounded=0;" parent="1" vertex="1">
          <mxGeometry x="390" y="420" width="190" height="30" as="geometry" />
        </mxCell>
        <mxCell id="uEUFvvo23RSSSX1iaue5-25" value="" style="rounded=0;whiteSpace=wrap;html=1;fillColor=none;" parent="1" vertex="1">
          <mxGeometry x="282.5" y="470" width="197.5" height="90" as="geometry" />
        </mxCell>
        <mxCell id="uEUFvvo23RSSSX1iaue5-26" value="return&lt;div&gt;&amp;nbsp;&quot;n&quot; &amp;amp; &quot;ullasdasdasd&quot;&lt;/div&gt;" style="text;html=1;align=center;verticalAlign=middle;whiteSpace=wrap;rounded=0;" parent="1" vertex="1">
          <mxGeometry x="295" y="485" width="95" height="30" as="geometry" />
        </mxCell>
        <mxCell id="uEUFvvo23RSSSX1iaue5-27" value="return nil" style="text;html=1;align=center;verticalAlign=middle;whiteSpace=wrap;rounded=0;" parent="1" vertex="1">
          <mxGeometry x="393.75" y="485" width="82.5" height="30" as="geometry" />
        </mxCell>
        <mxCell id="uEUFvvo23RSSSX1iaue5-28" value="" style="endArrow=classic;html=1;rounded=0;entryX=0;entryY=0.5;entryDx=0;entryDy=0;dashed=1;" parent="1" target="uEUFvvo23RSSSX1iaue5-26" edge="1">
          <mxGeometry width="50" height="50" relative="1" as="geometry">
            <mxPoint x="190" y="450" as="sourcePoint" />
            <mxPoint x="160" y="420" as="targetPoint" />
          </mxGeometry>
        </mxCell>
        <mxCell id="uEUFvvo23RSSSX1iaue5-29" value="if they are equal, return the rest of the string without that character, and the expected character" style="text;html=1;align=center;verticalAlign=middle;whiteSpace=wrap;rounded=0;" parent="1" vertex="1">
          <mxGeometry x="90" y="410" width="130" height="30" as="geometry" />
        </mxCell>
        <mxCell id="uEUFvvo23RSSSX1iaue5-30" value="" style="endArrow=classic;html=1;rounded=0;entryX=1;entryY=0.5;entryDx=0;entryDy=0;dashed=1;" parent="1" target="uEUFvvo23RSSSX1iaue5-27" edge="1">
          <mxGeometry width="50" height="50" relative="1" as="geometry">
            <mxPoint x="570" y="480" as="sourcePoint" />
            <mxPoint x="632.5" y="515" as="targetPoint" />
          </mxGeometry>
        </mxCell>
        <mxCell id="uEUFvvo23RSSSX1iaue5-31" value="if the characters are not equal" style="text;html=1;align=center;verticalAlign=middle;whiteSpace=wrap;rounded=0;" parent="1" vertex="1">
          <mxGeometry x="570" y="460" width="110" height="30" as="geometry" />
        </mxCell>
        <mxCell id="uEUFvvo23RSSSX1iaue5-33" value="output" style="rounded=0;whiteSpace=wrap;html=1;fillColor=#d5e8d4;strokeColor=#82b366;" parent="1" vertex="1">
          <mxGeometry x="400" y="520" width="80" height="40" as="geometry" />
        </mxCell>
        <mxCell id="1DLb7zQgLXHhxM0IBGhG-1" value="" style="rounded=0;whiteSpace=wrap;html=1;fillColor=none;" vertex="1" parent="1">
          <mxGeometry x="120" y="-70" width="520" height="100" as="geometry" />
        </mxCell>
        <mxCell id="1DLb7zQgLXHhxM0IBGhG-2" value="INPUT" style="text;html=1;align=center;verticalAlign=middle;whiteSpace=wrap;rounded=0;fillColor=#ffe6cc;strokeColor=#d79b00;" vertex="1" parent="1">
          <mxGeometry x="520" y="-40" width="120" height="40" as="geometry" />
        </mxCell>
        <mxCell id="1DLb7zQgLXHhxM0IBGhG-3" value="&quot;nullasdasdasd&quot;" style="rounded=0;whiteSpace=wrap;html=1;fillColor=none;" vertex="1" parent="1">
          <mxGeometry x="200" y="-10" width="120" height="30" as="geometry" />
        </mxCell>
        <mxCell id="1DLb7zQgLXHhxM0IBGhG-4" value="&quot;null&quot;" style="rounded=0;whiteSpace=wrap;html=1;fillColor=none;" vertex="1" parent="1">
          <mxGeometry x="375" y="-10" width="120" height="30" as="geometry" />
        </mxCell>
        <mxCell id="1DLb7zQgLXHhxM0IBGhG-5" value="" style="endArrow=classic;html=1;rounded=0;entryX=0;entryY=0.5;entryDx=0;entryDy=0;dashed=1;" edge="1" parent="1" target="1DLb7zQgLXHhxM0IBGhG-3">
          <mxGeometry width="50" height="50" relative="1" as="geometry">
            <mxPoint x="90" y="-130" as="sourcePoint" />
            <mxPoint x="140" y="-160" as="targetPoint" />
          </mxGeometry>
        </mxCell>
        <mxCell id="1DLb7zQgLXHhxM0IBGhG-7" value="string that should be parsed" style="text;html=1;align=center;verticalAlign=middle;whiteSpace=wrap;rounded=0;" vertex="1" parent="1">
          <mxGeometry x="100" y="-160" width="60" height="30" as="geometry" />
        </mxCell>
        <mxCell id="1DLb7zQgLXHhxM0IBGhG-8" value="" style="endArrow=classic;html=1;rounded=0;entryX=0.633;entryY=-0.133;entryDx=0;entryDy=0;dashed=1;entryPerimeter=0;" edge="1" parent="1" target="1DLb7zQgLXHhxM0IBGhG-4">
          <mxGeometry width="50" height="50" relative="1" as="geometry">
            <mxPoint x="570" y="-120" as="sourcePoint" />
            <mxPoint x="610" y="-100" as="targetPoint" />
          </mxGeometry>
        </mxCell>
        <mxCell id="1DLb7zQgLXHhxM0IBGhG-9" value="expected string" style="text;html=1;align=center;verticalAlign=middle;whiteSpace=wrap;rounded=0;" vertex="1" parent="1">
          <mxGeometry x="570" y="-120" width="60" height="30" as="geometry" />
        </mxCell>
        <mxCell id="1DLb7zQgLXHhxM0IBGhG-12" value="LOOP UNTIL EXPECTED STRING IS BLANK OR FAILURE" style="rounded=0;whiteSpace=wrap;html=1;fillColor=#fff2cc;strokeColor=#d6b656;" vertex="1" parent="1">
          <mxGeometry x="400" y="-200" width="320" height="40" as="geometry" />
        </mxCell>
        <mxCell id="1DLb7zQgLXHhxM0IBGhG-14" value="PARSE-CHAR" style="rounded=0;whiteSpace=wrap;html=1;fillColor=#fff2cc;strokeColor=#d6b656;" vertex="1" parent="1">
          <mxGeometry x="520" y="90" width="170" height="30" as="geometry" />
        </mxCell>
        <mxCell id="1DLb7zQgLXHhxM0IBGhG-15" value="" style="endArrow=classic;html=1;rounded=0;" edge="1" parent="1">
          <mxGeometry width="50" height="50" relative="1" as="geometry">
            <mxPoint x="399" y="29" as="sourcePoint" />
            <mxPoint x="399" y="137" as="targetPoint" />
          </mxGeometry>
        </mxCell>
        <mxCell id="1DLb7zQgLXHhxM0IBGhG-16" value="send remaining string and character that should be parsed" style="text;html=1;align=center;verticalAlign=middle;whiteSpace=wrap;rounded=0;" vertex="1" parent="1">
          <mxGeometry x="400" y="50" width="185" height="30" as="geometry" />
        </mxCell>
        <mxCell id="1DLb7zQgLXHhxM0IBGhG-17" value="" style="endArrow=classic;html=1;rounded=0;" edge="1" parent="1">
          <mxGeometry width="50" height="50" relative="1" as="geometry">
            <mxPoint x="399.72" y="580" as="sourcePoint" />
            <mxPoint x="400" y="647" as="targetPoint" />
          </mxGeometry>
        </mxCell>
        <mxCell id="1DLb7zQgLXHhxM0IBGhG-45" style="edgeStyle=orthogonalEdgeStyle;rounded=0;orthogonalLoop=1;jettySize=auto;html=1;endArrow=none;endFill=0;dashed=1;" edge="1" parent="1" source="1DLb7zQgLXHhxM0IBGhG-18">
          <mxGeometry relative="1" as="geometry">
            <mxPoint x="400" y="880" as="targetPoint" />
          </mxGeometry>
        </mxCell>
        <mxCell id="1DLb7zQgLXHhxM0IBGhG-18" value="" style="rounded=0;whiteSpace=wrap;html=1;fillColor=none;" vertex="1" parent="1">
          <mxGeometry x="170" y="650" width="460" height="100" as="geometry" />
        </mxCell>
        <mxCell id="1DLb7zQgLXHhxM0IBGhG-19" value="&quot;ullasdasdasd&quot; is sent as the remaining string to be parsed" style="text;html=1;align=center;verticalAlign=middle;whiteSpace=wrap;rounded=0;" vertex="1" parent="1">
          <mxGeometry x="-30" y="610" width="169.75" height="30" as="geometry" />
        </mxCell>
        <mxCell id="1DLb7zQgLXHhxM0IBGhG-32" style="edgeStyle=orthogonalEdgeStyle;rounded=0;orthogonalLoop=1;jettySize=auto;html=1;entryX=0;entryY=0.5;entryDx=0;entryDy=0;dashed=1;" edge="1" parent="1" source="1DLb7zQgLXHhxM0IBGhG-23" target="1DLb7zQgLXHhxM0IBGhG-26">
          <mxGeometry relative="1" as="geometry" />
        </mxCell>
        <mxCell id="1DLb7zQgLXHhxM0IBGhG-23" value="&quot;n&quot; is stored, and every char that is successfully&amp;nbsp; parsed will be conjoined to the stored characters" style="text;html=1;align=center;verticalAlign=middle;whiteSpace=wrap;rounded=0;" vertex="1" parent="1">
          <mxGeometry x="206.25" y="600" width="183.75" height="30" as="geometry" />
        </mxCell>
        <mxCell id="1DLb7zQgLXHhxM0IBGhG-34" style="edgeStyle=orthogonalEdgeStyle;rounded=0;orthogonalLoop=1;jettySize=auto;html=1;entryX=0.5;entryY=0;entryDx=0;entryDy=0;dashed=1;" edge="1" parent="1" source="1DLb7zQgLXHhxM0IBGhG-24" target="1DLb7zQgLXHhxM0IBGhG-29">
          <mxGeometry relative="1" as="geometry" />
        </mxCell>
        <mxCell id="1DLb7zQgLXHhxM0IBGhG-24" value="next character, in this case, &quot;u&quot;, will be expected character to be parsed" style="text;html=1;align=center;verticalAlign=middle;whiteSpace=wrap;rounded=0;" vertex="1" parent="1">
          <mxGeometry x="414" y="600" width="260" height="30" as="geometry" />
        </mxCell>
        <mxCell id="1DLb7zQgLXHhxM0IBGhG-31" style="edgeStyle=orthogonalEdgeStyle;rounded=0;orthogonalLoop=1;jettySize=auto;html=1;entryX=0.5;entryY=1;entryDx=0;entryDy=0;dashed=1;endArrow=none;endFill=0;startArrow=classic;startFill=1;" edge="1" parent="1" source="1DLb7zQgLXHhxM0IBGhG-25" target="1DLb7zQgLXHhxM0IBGhG-19">
          <mxGeometry relative="1" as="geometry" />
        </mxCell>
        <mxCell id="1DLb7zQgLXHhxM0IBGhG-25" value="&quot;ullasdasdasd&quot;" style="text;html=1;align=center;verticalAlign=middle;whiteSpace=wrap;rounded=0;strokeColor=default;" vertex="1" parent="1">
          <mxGeometry x="200" y="690" width="80" height="30" as="geometry" />
        </mxCell>
        <mxCell id="1DLb7zQgLXHhxM0IBGhG-26" value="&quot;n&quot;" style="text;html=1;align=center;verticalAlign=middle;whiteSpace=wrap;rounded=0;strokeColor=default;" vertex="1" parent="1">
          <mxGeometry x="320" y="690" width="50" height="30" as="geometry" />
        </mxCell>
        <mxCell id="1DLb7zQgLXHhxM0IBGhG-28" value="&quot;ull&quot;" style="text;html=1;align=center;verticalAlign=middle;whiteSpace=wrap;rounded=0;strokeColor=default;" vertex="1" parent="1">
          <mxGeometry x="560" y="690" width="50" height="30" as="geometry" />
        </mxCell>
        <mxCell id="1DLb7zQgLXHhxM0IBGhG-29" value="&quot;u&quot;" style="text;html=1;align=center;verticalAlign=middle;whiteSpace=wrap;rounded=0;strokeColor=default;" vertex="1" parent="1">
          <mxGeometry x="467.5" y="690" width="50" height="30" as="geometry" />
        </mxCell>
        <mxCell id="1DLb7zQgLXHhxM0IBGhG-30" style="edgeStyle=orthogonalEdgeStyle;rounded=0;orthogonalLoop=1;jettySize=auto;html=1;exitX=0.5;exitY=1;exitDx=0;exitDy=0;" edge="1" parent="1" source="1DLb7zQgLXHhxM0IBGhG-28" target="1DLb7zQgLXHhxM0IBGhG-28">
          <mxGeometry relative="1" as="geometry" />
        </mxCell>
        <mxCell id="1DLb7zQgLXHhxM0IBGhG-36" style="edgeStyle=orthogonalEdgeStyle;rounded=0;orthogonalLoop=1;jettySize=auto;html=1;entryX=0.5;entryY=1;entryDx=0;entryDy=0;dashed=1;" edge="1" parent="1" source="1DLb7zQgLXHhxM0IBGhG-35" target="1DLb7zQgLXHhxM0IBGhG-28">
          <mxGeometry relative="1" as="geometry" />
        </mxCell>
        <mxCell id="1DLb7zQgLXHhxM0IBGhG-35" value="&quot;ull&quot; will now be the expected string, as we will take the first character (&quot;u&quot;) to parse" style="text;html=1;align=center;verticalAlign=middle;whiteSpace=wrap;rounded=0;" vertex="1" parent="1">
          <mxGeometry x="440" y="770" width="260" height="30" as="geometry" />
        </mxCell>
        <mxCell id="1DLb7zQgLXHhxM0IBGhG-37" value="" style="endArrow=classic;html=1;rounded=0;exitX=0;exitY=0;exitDx=0;exitDy=0;dashed=1;" edge="1" parent="1" source="1DLb7zQgLXHhxM0IBGhG-25">
          <mxGeometry width="50" height="50" relative="1" as="geometry">
            <mxPoint x="150" y="660" as="sourcePoint" />
            <mxPoint x="114" y="-1" as="targetPoint" />
            <Array as="points">
              <mxPoint x="200" y="520" />
              <mxPoint y="520" />
              <mxPoint x="1" y="-2" />
            </Array>
          </mxGeometry>
        </mxCell>
        <mxCell id="1DLb7zQgLXHhxM0IBGhG-39" value="output" style="shape=cylinder3;whiteSpace=wrap;html=1;boundedLbl=1;backgroundOutline=1;size=15;" vertex="1" parent="1">
          <mxGeometry x="-20" y="690" width="50" height="70" as="geometry" />
        </mxCell>
        <mxCell id="1DLb7zQgLXHhxM0IBGhG-40" value="" style="endArrow=classic;html=1;rounded=0;dashed=1;" edge="1" parent="1">
          <mxGeometry width="50" height="50" relative="1" as="geometry">
            <mxPoint x="347" y="725" as="sourcePoint" />
            <mxPoint x="34" y="734" as="targetPoint" />
            <Array as="points">
              <mxPoint x="345" y="770" />
              <mxPoint x="121" y="770" />
              <mxPoint x="121" y="734" />
            </Array>
          </mxGeometry>
        </mxCell>
        <mxCell id="1DLb7zQgLXHhxM0IBGhG-41" value="" style="endArrow=classic;html=1;rounded=0;exitX=0.5;exitY=1;exitDx=0;exitDy=0;exitPerimeter=0;" edge="1" parent="1" source="1DLb7zQgLXHhxM0IBGhG-39">
          <mxGeometry width="50" height="50" relative="1" as="geometry">
            <mxPoint x="20" y="920" as="sourcePoint" />
            <mxPoint x="5" y="850" as="targetPoint" />
          </mxGeometry>
        </mxCell>
        <mxCell id="1DLb7zQgLXHhxM0IBGhG-42" value="output (parsed string &amp;amp; rest of string)&lt;div&gt;&quot;null&quot; &quot;asdasdasd&quot;&lt;/div&gt;" style="rounded=0;whiteSpace=wrap;html=1;fillColor=#d5e8d4;strokeColor=#82b366;" vertex="1" parent="1">
          <mxGeometry x="-100" y="860" width="210" height="60" as="geometry" />
        </mxCell>
        <mxCell id="1DLb7zQgLXHhxM0IBGhG-43" value="when there is no more of expected string, that means the parsing is successful" style="text;html=1;align=center;verticalAlign=middle;whiteSpace=wrap;rounded=0;" vertex="1" parent="1">
          <mxGeometry x="-150" y="820" width="150" height="30" as="geometry" />
        </mxCell>
        <mxCell id="1DLb7zQgLXHhxM0IBGhG-44" value="" style="endArrow=classic;html=1;rounded=0;dashed=1;" edge="1" parent="1">
          <mxGeometry width="50" height="50" relative="1" as="geometry">
            <mxPoint x="613" y="705" as="sourcePoint" />
            <mxPoint x="642" as="targetPoint" />
            <Array as="points">
              <mxPoint x="696" y="704" />
              <mxPoint x="696" y="1" />
            </Array>
          </mxGeometry>
        </mxCell>
        <mxCell id="1DLb7zQgLXHhxM0IBGhG-50" style="edgeStyle=orthogonalEdgeStyle;rounded=0;orthogonalLoop=1;jettySize=auto;html=1;entryX=0.5;entryY=0;entryDx=0;entryDy=0;" edge="1" parent="1" source="1DLb7zQgLXHhxM0IBGhG-46" target="1DLb7zQgLXHhxM0IBGhG-47">
          <mxGeometry relative="1" as="geometry" />
        </mxCell>
        <mxCell id="1DLb7zQgLXHhxM0IBGhG-46" value="II iteration:&lt;div&gt;string that should be parsed: &quot;ullasdasdasd&quot;&lt;/div&gt;&lt;div&gt;expected string: &quot;ull&quot;&lt;/div&gt;&lt;div&gt;I&lt;/div&gt;&lt;div&gt;V&lt;/div&gt;&lt;div&gt;string that should be parsed: &quot;ullasdasdasd&lt;/div&gt;&lt;div&gt;expected character: &quot;u&quot;&lt;/div&gt;&lt;div&gt;I&lt;br&gt;V&lt;/div&gt;&lt;div&gt;stored output: &quot;nu&quot;&amp;nbsp;&lt;/div&gt;&lt;div&gt;rest of string: &quot;llasdasdasd&quot;&lt;/div&gt;" style="text;html=1;align=center;verticalAlign=middle;whiteSpace=wrap;rounded=0;strokeColor=default;" vertex="1" parent="1">
          <mxGeometry x="270" y="880" width="270" height="160" as="geometry" />
        </mxCell>
        <mxCell id="1DLb7zQgLXHhxM0IBGhG-51" style="edgeStyle=orthogonalEdgeStyle;rounded=0;orthogonalLoop=1;jettySize=auto;html=1;entryX=0.5;entryY=0;entryDx=0;entryDy=0;" edge="1" parent="1" source="1DLb7zQgLXHhxM0IBGhG-47" target="1DLb7zQgLXHhxM0IBGhG-48">
          <mxGeometry relative="1" as="geometry" />
        </mxCell>
        <mxCell id="1DLb7zQgLXHhxM0IBGhG-47" value="III iteration:&lt;div&gt;string that should be parsed: &quot;llasdasdasd&quot;&lt;/div&gt;&lt;div&gt;expected string: &quot;ll&quot;&lt;/div&gt;&lt;div&gt;I&lt;/div&gt;&lt;div&gt;V&lt;/div&gt;&lt;div&gt;string that should be parsed: &quot;llasdasdasd&lt;/div&gt;&lt;div&gt;expected character: &quot;l&quot;&lt;/div&gt;&lt;div&gt;I&lt;br&gt;V&lt;/div&gt;&lt;div&gt;stored output: &quot;nul&quot;&lt;/div&gt;&lt;div&gt;rest of string: &quot;lasdasdasd&quot;&lt;br&gt;&lt;/div&gt;" style="text;html=1;align=center;verticalAlign=middle;whiteSpace=wrap;rounded=0;strokeColor=default;" vertex="1" parent="1">
          <mxGeometry x="270" y="1060" width="270" height="160" as="geometry" />
        </mxCell>
        <mxCell id="1DLb7zQgLXHhxM0IBGhG-54" style="edgeStyle=orthogonalEdgeStyle;rounded=0;orthogonalLoop=1;jettySize=auto;html=1;" edge="1" parent="1" source="1DLb7zQgLXHhxM0IBGhG-48">
          <mxGeometry relative="1" as="geometry">
            <mxPoint x="405" y="1440" as="targetPoint" />
          </mxGeometry>
        </mxCell>
        <mxCell id="1DLb7zQgLXHhxM0IBGhG-48" value="IV iteration:&lt;div&gt;string that should be parsed: &quot;llasdasdasd&quot;&lt;/div&gt;&lt;div&gt;expected string: &quot;l&quot;&lt;/div&gt;&lt;div&gt;I&lt;/div&gt;&lt;div&gt;V&lt;/div&gt;&lt;div&gt;string that should be parsed: &quot;llasdasdasd&lt;/div&gt;&lt;div&gt;expected character: &quot;l&quot;&lt;/div&gt;&lt;div&gt;I&lt;br&gt;V&lt;/div&gt;&lt;div&gt;stored output: &quot;null&quot;&lt;/div&gt;&lt;div&gt;rest of string: &quot;asdasdasd&quot;&lt;/div&gt;" style="text;html=1;align=center;verticalAlign=middle;whiteSpace=wrap;rounded=0;strokeColor=default;" vertex="1" parent="1">
          <mxGeometry x="270" y="1240" width="270" height="160" as="geometry" />
        </mxCell>
        <mxCell id="1DLb7zQgLXHhxM0IBGhG-55" value="&lt;div&gt;output: &quot;null&quot;&lt;/div&gt;&lt;div&gt;rest of string: &quot;asdasdasd&quot;&lt;/div&gt;" style="text;html=1;align=center;verticalAlign=middle;whiteSpace=wrap;rounded=0;fillColor=#d5e8d4;strokeColor=#82b366;" vertex="1" parent="1">
          <mxGeometry x="302" y="1440" width="206" height="30" as="geometry" />
        </mxCell>
      </root>
    </mxGraphModel>
  </diagram>
</mxfile>
